{"title":"The Secret Life of Walter Mitty 2013 CAM AAC x264-SSDD","uid":9430987,"size":575746457,"categoryP":"video","categoryS":"movies","magnet":"?xt=urn:btih:6ac2e9d3fe13931432542f2fe7a6319b9a651dc1&amp;dn=The+Secret+Life+of+Walter+Mitty+2013+CAM+AAC+x264-SSDD&amp;tr=udp%3A%2F%2Ftracker.openbittorrent.com%3A80&amp;tr=udp%3A%2F%2Fopen.demonii.com%3A1337&amp;tr=udp%3A%2F%2Ftracker.coppersurfer.tk%3A6969&amp;tr=udp%3A%2F%2Fexodus.desync.com%3A6969","seeders":9,"leechers":4,"uploader":"xxxlavalxxx","files":-1,"time":1388799943,"description":" &lt;a href=&quot;\nhttp://www.imdb.com/title/tt0359950/&quot; rel=&quot;nofollow&quot; target=&quot;_NEW&quot;&gt;\nhttp://www.imdb.com/title/tt0359950/&lt;/a&gt;\n\n\nA day-dreamer escapes his anonymous life by disappearing into a world of fantasies filled with heroism, romance and action. When his job along with that of his co-worker are threatened, he takes action in the real world embarking on a global journey that turns into an adventure more extraordinary than anything he could have ever imagined.\n\nDirector: Ben Stiller\nWriters: Steve Conrad (screenplay), James Thurber \nStars: Ben Stiller, Kristen Wiig, Jon Daly\nGenres: Adventure | Comedy | Drama | Fantasy\nCountry: USA\nLanguage: English\n\n\nGeneral\nComplete name                            : The Secret Life of Walter Mitty 2013 CAM AAC x264-SSDD.mp4\nFormat                                   : MPEG-4\nFormat profile                           : Base Media\nCodec ID                                 : isom\nFile size                                : 539 MiB\nDuration                                 : 1h 43mn\nOverall bit rate mode                    : Variable\nOverall bit rate                         : 725 Kbps\n\nVideo\nID                                       : 1\nFormat                                   : AVC\nFormat/Info                              : Advanced Video Codec\nFormat profile                           : &lt;a class=&quot;__cf_email__&quot; href=&quot;/cdn-cgi/l/email-protection&quot; data-cfemail=&quot;de96b7b9b69e92eaf0ef&quot;&gt;[email&amp;#160;protected]&lt;/a&gt;&lt;script cf-hash='f9e31' type=&quot;text/javascript&quot;&gt;\n/* &lt;![CDATA[ */!function(){try{var t=&quot;currentScript&quot;in document?document.currentScript:function(){for(var t=document.getElementsByTagName(&quot;script&quot;),e=t.length;e--;)if(t[e].getAttribute(&quot;cf-hash&quot;))return t[e]}();if(t&amp;&amp;t.previousSibling){var e,r,n,i,c=t.previousSibling,a=c.getAttribute(&quot;data-cfemail&quot;);if(a){for(e=&quot;&quot;,r=parseInt(a.substr(0,2),16),n=2;a.length-n;n+=2)i=parseInt(a.substr(n,2),16)^r,e+=String.fromCharCode(i);e=document.createTextNode(e),c.parentNode.replaceChild(e,c)}}}catch(u){}}();/* ]]&gt; */&lt;/script&gt;\nFormat settings, CABAC                   : Yes\nFormat settings, ReFrames                : 3 frames\nCodec ID                                 : avc1\nCodec ID/Info                            : Advanced Video Coding\nDuration                                 : 1h 43mn\nBit rate mode                            : Variable\nBit rate                                 : 671 Kbps\nMaximum bit rate                         : 40.0 Mbps\nWidth                                    : 688 pixels\nHeight                                   : 272 pixels\nDisplay aspect ratio                     : 2.529\nFrame rate mode                          : Constant\nFrame rate                               : 29.970 fps\nColor space                              : YUV\nChroma subsampling                       : 4:2:0\nBit depth                                : 8 bits\nScan type                                : Progressive\nBits/(Pixel*Frame)                       : 0.120\nStream size                              : 498 MiB (92%)\nWriting library                          : x264 core 140 r2377 1ca7bb9\n\nAudio\nID                                       : 2\nFormat                                   : AAC\nFormat/Info                              : Advanced Audio Codec\nFormat profile                           : LC\nCodec ID                                 : 40\nDuration                                 : 1h 43mn\nBit rate mode                            : Variable\nBit rate                                 : 50.3 Kbps\nMaximum bit rate                         : 63.4 Kbps\nChannel count                            : 2 channels\nChannel positions                        : Front: L R\nSampling rate                            : 44.1 KHz\nCompression mode                         : Lossy\nStream size                              : 37.4 MiB (7%)\n\n\n\nscreens\n &lt;a href=&quot;\nhttp://i.imgur.com/RGXwu2q.jpg&quot; rel=&quot;nofollow&quot; target=&quot;_NEW&quot;&gt;\nhttp://i.imgur.com/RGXwu2q.jpg&lt;/a&gt; &lt;a href=&quot;\nhttp://i.imgur.com/4NB0Lpi.jpg&quot; rel=&quot;nofollow&quot; target=&quot;_NEW&quot;&gt;\nhttp://i.imgur.com/4NB0Lpi.jpg&lt;/a&gt; &lt;a href=&quot;\nhttp://i.imgur.com/Ms0g2pv.jpg&quot; rel=&quot;nofollow&quot; target=&quot;_NEW&quot;&gt;\nhttp://i.imgur.com/Ms0g2pv.jpg&lt;/a&gt;\n","torrent":{"xt":"urn:btih:6ac2e9d3fe13931432542f2fe7a6319b9a651dc1","amp;dn":"The+Secret+Life+of+Walter+Mitty+2013+CAM+AAC+x264-SSDD","amp;tr":["udp%3A%2F%2Ftracker.openbittorrent.com%3A80","udp%3A%2F%2Fopen.demonii.com%3A1337","udp%3A%2F%2Ftracker.coppersurfer.tk%3A6969","udp%3A%2F%2Fexodus.desync.com%3A6969"],"infoHash":"6ac2e9d3fe13931432542f2fe7a6319b9a651dc1","infoHashBuffer":{"type":"Buffer","data":[106,194,233,211,254,19,147,20,50,84,47,47,231,166,49,155,154,101,29,193]},"announce":[],"urlList":[]}}